<svg width="61" height="61" viewBox="0 0 61 61" fill="none" xmlns="http://www.w3.org/2000/svg">
<path d="M16.1499 13.0022C20.1418 9.74722 25.1493 7.99609 30.2998 8.05396C35.4502 8.11184 40.4171 9.97505 44.3349 13.3189C48.2527 16.6628 50.873 21.2753 51.7392 26.3528C52.6054 31.4302 51.6627 36.6506 49.0752 41.1043C46.4877 45.558 42.4195 48.9626 37.5795 50.7249C32.7396 52.4872 27.4347 52.4953 22.5894 50.748C17.744 49.0007 13.6654 45.6086 11.0641 41.1629C8.46291 36.7172 7.50403 31.4998 8.35458 26.4197L12.1676 27.0581C11.4665 31.2454 12.2569 35.546 14.401 39.2105C16.5451 42.8749 19.907 45.6709 23.9009 47.1111C27.8948 48.5514 32.2674 48.5447 36.2568 47.0921C40.2462 45.6395 43.5995 42.8332 45.7323 39.1622C47.8651 35.4911 48.6422 31.1881 47.9282 27.0029C47.2142 22.8178 45.0543 19.0158 41.825 16.2596C38.5957 13.5033 34.5017 11.9675 30.2563 11.9198C26.011 11.8721 21.8834 13.3155 18.593 15.9985L16.1499 13.0022Z" fill="#D9D9D9"/>
<path d="M12 19C12 18.5 16 10.5 16.5 10.5C17 10.5 21.5 17 20.5 17C19.5 17 12 19.5 12 19Z" fill="#D9D9D9"/>
</svg>
